<svg width="375" height="265" viewBox="0 0 375 265" fill="none" xmlns="http://www.w3.org/2000/svg">
<path d="M339.589 68.7159C341.94 67.7728 344.366 67.0327 346.862 66.4916C350.434 65.7176 353.765 66.1009 356.954 67.2844C363.619 69.7567 369.657 75.7307 375.927 81.9338C382.747 88.6781 389.713 95.5651 397.982 98.6347C402.921 100.468 408.322 100.938 414.439 99.2021C417.83 98.2402 421.54 98.507 425.545 99.9948C429.355 101.408 433.432 103.925 437.747 107.539C444.844 113.476 452.596 122.365 460.79 133.96C471.255 148.764 479.798 164.289 483.542 171.168C484.566 173.05 483.8 175.53 481.964 176.267L477.451 178.074C476.101 178.615 474.602 178.014 473.85 176.631C470.571 170.601 461.579 153.952 450.394 138.127C442.2 126.536 434.449 117.646 427.351 111.706C423.036 108.095 418.959 105.578 415.149 104.162C411.145 102.674 407.434 102.407 404.044 103.369C397.93 105.105 392.525 104.631 387.587 102.801C379.317 99.7318 372.351 92.8448 365.531 86.1006C359.258 79.8974 353.22 73.9272 346.558 71.4512C343.369 70.2676 340.038 69.8844 336.466 70.6584C333.97 71.1994 331.544 71.9434 329.193 72.8827L339.592 68.7197" stroke="#0030A5" stroke-width="0.859132" stroke-miterlimit="10"/>
<path d="M325.584 74.3263C327.934 73.3832 330.36 72.643 332.856 72.102C336.428 71.328 339.759 71.7112 342.948 72.8947C349.614 75.367 355.652 81.341 361.921 87.5442C368.741 94.2884 375.707 101.175 383.977 104.245C388.916 106.079 394.316 106.548 400.434 104.812C403.824 103.851 407.535 104.117 411.539 105.605C415.349 107.018 419.426 109.535 423.741 113.15C430.839 119.086 438.59 127.976 446.784 139.571C457.249 154.374 465.793 169.899 469.536 176.778C470.56 178.661 469.794 181.141 467.958 181.877L463.522 183.654C462.171 184.195 460.673 183.594 459.92 182.211C456.642 176.181 447.649 159.533 436.464 143.707C428.27 132.116 420.519 123.227 413.421 117.286C409.106 113.676 405.029 111.158 401.22 109.742C397.215 108.254 393.504 107.987 390.114 108.949C384 110.685 378.596 110.212 373.657 108.382C365.387 105.312 358.421 98.4251 351.601 91.6809C345.329 85.4777 339.29 79.5075 332.628 77.0315C329.439 75.8479 326.108 75.4647 322.536 76.2387C320.041 76.7797 317.614 77.5237 315.264 78.463L325.587 74.33" stroke="#0030A5" stroke-width="0.859132" stroke-miterlimit="10"/>
<path d="M311.461 79.9796C313.811 79.0365 316.238 78.2963 318.733 77.7553C322.305 76.9813 325.636 77.3645 328.826 78.5481C335.491 81.0203 341.529 86.9943 347.798 93.1975C354.619 99.9417 361.584 106.829 369.854 109.898C374.793 111.732 380.194 112.202 386.311 110.466C389.701 109.504 393.412 109.771 397.417 111.259C401.226 112.671 405.303 115.189 409.618 118.803C416.716 124.739 424.467 133.629 432.661 145.224C443.126 160.027 451.67 175.552 455.414 182.432C456.437 184.314 455.671 186.794 453.836 187.53L449.475 189.277C448.124 189.818 446.626 189.217 445.873 187.835C442.595 181.804 433.602 165.156 422.417 149.331C414.223 137.739 406.472 128.85 399.374 122.91C395.059 119.299 390.982 116.782 387.173 115.365C383.168 113.877 379.457 113.611 376.067 114.572C369.953 116.308 364.549 115.835 359.61 114.005C351.34 110.935 344.375 104.048 337.554 97.3042C331.282 91.101 325.244 85.1307 318.582 82.6547C315.393 81.4712 312.062 81.088 308.49 81.8619C305.994 82.403 303.567 83.1469 301.217 84.0862L311.461 79.9833" stroke="#0030A5" stroke-width="0.859132" stroke-miterlimit="10"/>
<path d="M289.419 245.198C298.5 241.561 305.252 235.331 309.56 226.584C314.119 217.33 315.997 205.149 315.146 190.376C314.452 178.409 311.973 164.691 307.774 149.599C305.222 140.431 304.307 131.057 305.05 121.731C305.767 112.767 307.972 104.294 311.603 96.5541C315.248 88.7879 320.101 82.2353 326.037 77.0766C330.193 73.4622 334.732 70.6668 339.595 68.7168L329.196 72.8798C324.333 74.8261 319.794 77.6214 315.638 81.2396C309.705 86.3983 304.849 92.9509 301.204 100.717C297.573 108.457 295.368 116.93 294.651 125.894C293.908 135.22 294.823 144.598 297.375 153.762C301.574 168.854 304.053 182.572 304.747 194.539C305.598 209.309 303.72 221.489 299.161 230.747C294.853 239.494 288.101 245.724 279.02 249.361L289.419 245.198Z" fill="#0030A5"/>
<path d="M275.411 250.807C284.493 247.17 291.244 240.941 295.552 232.194C300.111 222.94 301.99 210.759 301.138 195.985C300.445 184.018 297.965 170.301 293.766 155.208C291.214 146.04 290.3 136.666 291.043 127.341C291.759 118.376 293.964 109.903 297.596 102.163C301.24 94.3973 306.093 87.8447 312.029 82.686C316.185 79.0716 320.725 76.2762 325.587 74.3262L315.264 78.4591C310.401 80.4054 305.862 83.2007 301.706 86.819C295.773 91.9776 290.917 98.5302 287.273 106.296C283.641 114.036 281.436 122.509 280.72 131.474C279.977 140.799 280.891 150.177 283.443 159.341C287.642 174.434 290.122 188.151 290.815 200.118C291.667 214.888 289.788 227.069 285.229 236.327C280.921 245.073 274.17 251.303 265.088 254.94L275.411 250.807Z" fill="#002075"/>
<path d="M261.287 256.461C270.369 252.824 277.12 246.595 281.428 237.848C285.987 228.594 287.866 216.413 287.014 201.64C286.321 189.673 283.841 175.955 279.642 160.862C277.09 151.695 276.176 142.32 276.919 132.995C277.635 124.03 279.84 115.558 283.472 107.818C287.116 100.052 291.969 93.499 297.905 88.3403C302.061 84.7258 306.6 81.9305 311.463 79.9805L301.219 84.0834C296.357 86.0296 291.817 88.825 287.661 92.4432C281.729 97.6019 276.872 104.154 273.228 111.921C269.596 119.661 267.391 128.133 266.675 137.098C265.932 146.423 266.846 155.801 269.398 164.965C273.597 180.058 276.077 193.776 276.77 205.742C277.622 220.512 275.743 232.693 271.184 241.951C266.876 250.698 260.125 256.927 251.043 260.564L261.287 256.461Z" fill="#0041B7"/>
<path d="M339.514 68.4609C334.632 70.4147 330.076 73.2213 325.903 76.8508C319.947 82.032 315.071 88.611 311.414 96.4072C307.766 104.177 305.554 112.687 304.837 121.69C304.088 131.053 305.009 140.468 307.571 149.67C311.763 164.74 314.243 178.435 314.929 190.379C315.781 205.096 313.909 217.225 309.373 226.434C305.092 235.128 298.377 241.324 289.344 244.942L278.945 249.105C287.978 245.487 294.692 239.291 298.974 230.597C303.51 221.388 305.382 209.259 304.53 194.542C303.84 182.598 301.364 168.899 297.172 153.833C294.61 144.631 293.692 135.219 294.438 125.853C295.158 116.85 297.37 108.344 301.014 100.57C304.672 92.774 309.548 86.1951 315.504 81.0138C319.677 77.3844 324.232 74.5777 329.115 72.6239L339.514 68.4609Z" fill="#002075"/>
<path d="M325.503 74.0703C320.62 76.0241 316.064 78.8307 311.891 82.4602C305.936 87.6414 301.06 94.2203 297.402 102.017C293.754 109.787 291.542 118.297 290.826 127.299C290.077 136.662 290.998 146.078 293.559 155.279C297.752 170.349 300.231 184.044 300.918 195.989C301.77 210.706 299.898 222.834 295.362 232.043C291.08 240.737 284.365 246.933 275.333 250.551L265.01 254.684C274.042 251.066 280.757 244.87 285.039 236.176C289.575 226.967 291.447 214.839 290.595 200.122C289.905 188.177 287.429 174.479 283.236 159.412C280.674 150.211 279.757 140.799 280.503 131.432C281.222 122.43 283.434 113.923 287.079 106.15C290.737 98.3533 295.613 91.7744 301.568 86.5932C305.741 82.9637 310.297 80.157 315.18 78.2033L325.503 74.0703Z" fill="#002075"/>
<path d="M311.382 79.7285C306.5 81.6823 301.944 84.4889 297.771 88.1184C291.816 93.2996 286.94 99.8785 283.282 107.675C279.634 115.445 277.422 123.955 276.706 132.957C275.956 142.32 276.877 151.736 279.439 160.937C283.632 176.007 286.111 189.703 286.798 201.647C287.649 216.364 285.778 228.492 281.242 237.701C276.96 246.395 270.245 252.591 261.213 256.209L250.969 260.312C260.001 256.694 266.716 250.498 270.998 241.804C275.534 232.595 277.406 220.467 276.554 205.75C275.864 193.805 273.388 180.107 269.195 165.04C266.633 155.839 265.716 146.427 266.462 137.06C267.181 128.058 269.393 119.551 273.038 111.778C276.696 103.981 281.572 97.4025 287.527 92.2213C291.7 88.5918 296.256 85.7852 301.139 83.8314L311.382 79.7285Z" fill="#002075"/>
<path d="M259.794 246.368C265.828 248.608 272.187 249.186 278.822 248.089C282.645 247.454 286.181 246.489 289.416 245.192L279.017 249.355C275.778 250.652 272.246 251.617 268.423 252.252C261.788 253.349 255.429 252.771 249.395 250.531L259.794 246.368Z" stroke="#0030A5" stroke-width="0.859132" stroke-miterlimit="10"/>
<path d="M245.784 251.982C251.819 254.221 258.177 254.8 264.813 253.702C268.636 253.068 272.171 252.102 275.407 250.806L265.083 254.939C261.845 256.235 258.313 257.2 254.49 257.835C247.854 258.933 241.496 258.354 235.461 256.115L245.784 251.982Z" stroke="#0030A5" stroke-width="0.859132" stroke-miterlimit="10"/>
<path d="M231.662 257.636C237.697 259.875 244.055 260.454 250.691 259.357C254.513 258.722 258.049 257.756 261.284 256.46L251.04 260.563C247.802 261.859 244.27 262.825 240.447 263.46C233.811 264.557 227.453 263.978 221.418 261.739L231.662 257.636Z" stroke="#0030A5" stroke-width="0.859132" stroke-miterlimit="10"/>
<path d="M166.087 30.8311C173.904 36.5233 180.708 44.4134 185.766 53.6525C190.823 62.8915 194.138 73.4794 195.346 84.2777C199.657 122.819 205.821 150.262 210.232 166.497C219.379 200.162 231.026 223.821 244.856 236.81C249.573 241.24 254.561 244.43 259.794 246.372L249.395 250.535C244.162 248.593 239.171 245.403 234.456 240.973C220.631 227.984 208.98 204.329 199.832 170.66C195.422 154.425 189.258 126.986 184.947 88.4407C183.739 77.6461 180.427 67.0545 175.367 57.8155C170.309 48.5802 163.505 40.69 155.688 34.9941L166.087 30.8311Z" stroke="#0030A5" stroke-width="0.859132" stroke-miterlimit="10"/>
<path d="M152.077 36.4414C159.895 42.1336 166.698 50.0238 171.756 59.2628C176.814 68.5018 180.128 79.0897 181.336 89.888C185.648 128.43 191.811 155.872 196.222 172.107C205.37 205.772 217.017 229.432 230.846 242.42C235.563 246.85 240.552 250.04 245.784 251.982L235.461 256.115C230.229 254.173 225.237 250.983 220.523 246.553C206.697 233.564 195.047 209.909 185.899 176.24C181.488 160.005 175.325 132.566 171.013 94.0209C169.805 83.2264 166.494 72.6348 161.433 63.3958C156.375 54.1605 149.571 46.2703 141.754 40.5744L152.077 36.4414Z" stroke="#0030A5" stroke-width="0.859132" stroke-miterlimit="10"/>
<path d="M137.955 42.0957C145.772 47.7879 152.576 55.6781 157.634 64.9171C162.691 74.1561 166.006 84.744 167.214 95.5423C171.526 134.084 177.689 161.527 182.1 177.762C191.248 211.427 202.895 235.086 216.724 248.075C221.441 252.504 226.43 255.694 231.662 257.637L221.418 261.74C216.186 259.797 211.194 256.607 206.48 252.177C192.654 239.189 181.004 215.533 171.856 181.865C167.445 165.63 161.282 138.191 156.97 99.6452C155.762 88.8507 152.451 78.259 147.39 69.02C142.332 59.7847 135.528 51.8946 127.711 46.1986L137.955 42.0957Z" stroke="#0030A5" stroke-width="0.859132" stroke-miterlimit="10"/>
<path d="M141.379 24.5729L155.71 35.0105L166.248 30.7911L151.917 20.3535L141.379 24.5729Z" stroke="#0030A5" stroke-width="0.859132" stroke-miterlimit="10"/>
<path d="M127.443 30.1525L141.774 40.5901L152.097 36.4571L137.767 26.0195L127.443 30.1525Z" stroke="#0030A5" stroke-width="0.859132" stroke-miterlimit="10"/>
<path d="M113.262 35.8331L127.593 46.2707L137.975 42.1114L123.648 31.6738L113.262 35.8331Z" stroke="#0030A5" stroke-width="0.859132" stroke-miterlimit="10"/>
<path d="M129.262 17.039C134.429 14.9687 139.995 14.9349 145.32 16.9112C147.535 17.734 149.711 18.9063 151.794 20.4242L141.395 24.5872C139.312 23.0693 137.136 21.8971 134.921 21.0742C129.596 19.0979 124.03 19.1355 118.863 21.202C122.33 19.8156 125.796 18.4254 129.262 17.039Z" stroke="#0030A5" stroke-width="0.859132" stroke-miterlimit="10"/>
<path d="M115.253 22.6483C120.419 20.5781 125.985 20.5443 131.31 22.5206C133.526 23.3434 135.701 24.5157 137.784 26.0336L127.461 30.1666C125.378 28.6486 123.202 27.4764 120.987 26.6535C115.662 24.6772 110.096 24.7148 104.93 26.7813L115.253 22.6483Z" stroke="#0030A5" stroke-width="0.859132" stroke-miterlimit="10"/>
<path d="M101.131 28.3026C106.297 26.2324 111.863 26.1986 117.188 28.1749C119.403 28.9977 121.579 30.17 123.662 31.6879L113.418 35.7908C111.335 34.2729 109.159 33.1006 106.944 32.2778C101.619 30.3015 96.0532 30.3391 90.8867 32.4055C94.3003 31.0379 97.7171 29.6703 101.131 28.3026Z" stroke="#0030A5" stroke-width="0.859132" stroke-miterlimit="10"/>
<path d="M111.787 47.668C111.49 35.7238 116.307 25.1923 124.672 19.4963C126.155 18.4894 127.69 17.6703 129.264 17.0391C128.112 17.5012 126.577 18.1136 125.428 18.5758C124.854 18.805 124.085 19.1131 123.51 19.346C122.358 19.8081 120.823 20.4206 119.674 20.8827C119.433 20.9804 119.11 21.1081 118.869 21.2058C117.294 21.837 115.759 22.6561 114.277 23.6631C105.911 29.359 101.098 39.8905 101.392 51.8348L111.791 47.6718" fill="#0041B7"/>
<path d="M97.7792 53.2774C97.4821 41.3331 102.299 30.8016 110.664 25.1057C112.146 24.0987 113.682 23.2797 115.256 22.6484L104.933 26.7814C103.358 27.4126 101.823 28.2317 100.341 29.2386C91.9756 34.9346 87.1623 45.4661 87.4561 57.4103L97.7792 53.2774Z" fill="#0041B7"/>
<path d="M83.6576 58.9317C83.3605 46.9874 88.1771 36.4559 96.5426 30.76C98.0249 29.753 99.56 28.9339 101.135 28.3027C99.9825 28.7649 98.4474 29.3773 97.2986 29.8394C96.7241 30.0686 95.9549 30.3767 95.3805 30.6097C94.2284 31.0718 92.6933 31.6842 91.5444 32.1464C91.3496 32.2253 91.0888 32.3305 90.8941 32.4056C89.3194 33.0368 87.7842 33.8559 86.302 34.8629C77.9365 40.5588 73.1232 51.0903 73.417 63.0346L83.6609 58.9317" fill="#0041B7"/>
<path d="M103.214 125.446L101.389 51.7291L111.926 47.5098L113.752 121.227L103.214 125.446Z" fill="#0041B7"/>
<path d="M89.2821 131.026L87.4531 57.3087L97.7763 53.1758L99.6052 126.893L89.2821 131.026Z" fill="#0041B7"/>
<path d="M75.1004 136.702L73.2715 62.9893L83.654 58.8301L85.483 132.547L75.1004 136.702Z" fill="#0041B7"/>
<path d="M100.167 144.778C101.008 144.44 101.837 144.034 102.639 143.561C105.97 141.603 108.75 138.593 110.671 134.855C112.721 130.876 113.738 126.146 113.613 121.179L103.214 125.342C103.336 130.313 102.319 135.043 100.272 139.018C98.3476 142.753 95.5713 145.766 92.2402 147.724C91.438 148.197 90.6094 148.603 89.7676 148.941L100.167 144.778Z" fill="#0041B7"/>
<path d="M86.1552 150.386C86.997 150.048 87.8256 149.642 88.6278 149.169C91.9588 147.211 94.7385 144.202 96.6599 140.463C98.71 136.485 99.7268 131.754 99.6014 126.787L89.2782 130.92C89.4003 135.891 88.3835 140.621 86.3367 144.596C84.4121 148.331 81.6357 151.344 78.3047 153.302C77.5025 153.775 76.6739 154.181 75.832 154.519L86.1552 150.386Z" fill="#0041B7"/>
<path d="M72.0349 156.042C72.8768 155.703 73.7054 155.298 74.5076 154.824C77.8386 152.867 80.6183 149.857 82.5396 146.119C84.5898 142.14 85.6066 137.409 85.4811 132.442L75.2372 136.545C75.3593 141.516 74.3425 146.246 72.2957 150.222C70.3711 153.956 67.5947 156.97 64.2637 158.927C63.4615 159.401 62.6328 159.806 61.791 160.144L72.0349 156.042Z" fill="#0041B7"/>
<path d="M80.7272 140.514C82.8896 142.509 85.2698 143.997 87.7491 144.917C89.0993 145.417 90.4759 145.751 91.8691 145.909C94.6851 146.228 97.511 145.841 100.165 144.778L89.7662 148.941C87.1119 150.004 84.2893 150.391 81.47 150.072C80.0768 149.914 78.7002 149.58 77.35 149.08C74.8674 148.16 72.4905 146.672 70.3281 144.677L80.7272 140.514Z" fill="#002075"/>
<path d="M66.7157 146.123C68.8781 148.118 71.2583 149.606 73.7376 150.527C75.0878 151.026 76.4645 151.361 77.8576 151.518C80.6736 151.838 83.4995 151.451 86.1538 150.388L75.8306 154.52C73.1764 155.584 70.3538 155.971 67.5345 155.651C66.1413 155.494 64.7647 155.159 63.4144 154.659C60.9319 153.739 58.5549 152.251 56.3926 150.256L66.7157 146.123Z" fill="#002075"/>
<path d="M52.5955 151.777C54.7578 153.772 57.1381 155.26 59.6173 156.181C60.9676 156.681 62.3442 157.015 63.7374 157.173C66.5534 157.492 69.3793 157.105 72.0335 156.042L61.7896 160.145C59.1353 161.208 56.3127 161.595 53.4934 161.276C52.1003 161.118 50.7237 160.783 49.3734 160.284C46.8908 159.363 44.5139 157.875 42.3516 155.88L52.5955 151.777Z" fill="#002075"/>
<path d="M77.2528 150.725L-81.8828 4.23109L-71.3484 0.0117188L87.7905 146.506L77.2528 150.725Z" fill="#0030A5"/>
<path d="M63.3206 156.304L-95.8184 9.80971L-85.4952 5.67676L73.6438 152.171L63.3206 156.304Z" fill="#002075"/>
<path d="M49.1389 161.982L-110 15.4913L-99.6174 11.332L59.5215 157.826L49.1389 161.982Z" fill="#0041B7"/>
<path d="M-81.877 4.21937L77.1233 150.943L87.6577 146.724L-71.3392 0L-81.877 4.21937Z" fill="#002075"/>
<path d="M-95.8086 9.79897L63.1884 156.523L73.5116 152.39L-85.4854 5.66602L-95.8086 9.79897Z" fill="#002075"/>
<path d="M-109.994 15.4796L49.0061 162.203L59.3887 158.044L-99.6083 11.3203L-109.994 15.4796Z" fill="#002075"/>
</svg>
