<svg width="1916" height="1129" viewBox="0 0 1916 1129" fill="none" xmlns="http://www.w3.org/2000/svg">
<mask id="mask0_1982_4845" style="mask-type:alpha" maskUnits="userSpaceOnUse" x="0" y="0" width="1916" height="1129">
<rect width="1916" height="1129" fill="#D9D9D9"/>
</mask>
<g mask="url(#mask0_1982_4845)">
<path d="M1507.1 636.013C1500.85 638.727 1494.4 640.858 1487.77 642.415C1478.28 644.642 1469.42 643.539 1460.95 640.133C1443.23 633.018 1427.18 615.825 1410.52 597.973C1392.39 578.564 1373.88 558.743 1351.9 549.909C1338.78 544.632 1324.42 543.281 1308.16 548.276C1299.15 551.044 1289.29 550.277 1278.65 545.995C1268.52 541.929 1257.69 534.684 1246.22 524.282C1227.35 507.198 1206.75 481.614 1184.98 448.245C1157.16 405.642 1134.45 360.962 1124.51 341.163C1121.79 335.746 1123.82 328.609 1128.7 326.49L1140.69 321.289C1144.28 319.732 1148.27 321.462 1150.27 325.441C1158.98 342.796 1182.88 390.709 1212.61 436.253C1234.38 469.611 1254.98 495.195 1273.85 512.291C1285.32 522.682 1296.15 529.927 1306.28 534.003C1316.92 538.285 1326.78 539.053 1335.79 536.285C1352.04 531.289 1366.41 532.652 1379.53 537.917C1401.51 546.752 1420.02 566.572 1438.15 585.981C1454.82 603.834 1470.87 621.016 1488.58 628.141C1497.05 631.548 1505.9 632.65 1515.4 630.423C1522.03 628.866 1528.48 626.725 1534.73 624.022L1507.09 636.003" stroke="#0030A5" stroke-width="1.07814" stroke-miterlimit="10"/>
<path d="M1544.33 619.869C1538.08 622.583 1531.63 624.714 1525 626.271C1515.5 628.498 1506.65 627.395 1498.18 623.989C1480.46 616.874 1464.41 599.681 1447.75 581.829C1429.62 562.42 1411.11 542.599 1389.13 533.765C1376.01 528.488 1361.65 527.137 1345.39 532.132C1336.38 534.9 1326.52 534.133 1315.88 529.851C1305.75 525.785 1294.92 518.54 1283.45 508.138C1264.58 491.054 1243.98 465.47 1222.2 432.101C1194.39 389.498 1171.68 344.818 1161.73 325.019C1159.01 319.602 1161.05 312.466 1165.93 310.346L1177.72 305.232C1181.31 303.675 1185.29 305.405 1187.29 309.384C1196.01 326.739 1219.91 374.651 1249.63 420.196C1271.41 453.554 1292.01 479.138 1310.88 496.233C1322.34 506.624 1333.18 513.869 1343.3 517.946C1353.95 522.228 1363.81 522.995 1372.82 520.227C1389.07 515.232 1403.43 516.594 1416.56 521.86C1438.54 530.694 1457.05 550.514 1475.18 569.924C1491.85 587.776 1507.9 604.958 1525.6 612.084C1534.08 615.49 1542.93 616.593 1552.43 614.365C1559.06 612.808 1565.51 610.667 1571.75 607.964L1544.32 619.858" stroke="#0030A5" stroke-width="1.07814" stroke-miterlimit="10"/>
<path d="M1581.86 603.595C1575.61 606.309 1569.16 608.44 1562.53 609.997C1553.04 612.224 1544.18 611.121 1535.71 607.715C1517.99 600.6 1501.95 583.407 1485.28 565.555C1467.16 546.146 1448.64 526.325 1426.66 517.491C1413.54 512.214 1399.18 510.863 1382.93 515.858C1373.92 518.627 1364.05 517.859 1353.41 513.577C1343.29 509.511 1332.45 502.266 1320.98 491.864C1302.12 474.78 1281.52 449.196 1259.74 415.827C1231.92 373.224 1209.22 328.544 1199.27 308.746C1196.55 303.328 1198.58 296.192 1203.46 294.072L1215.05 289.044C1218.64 287.487 1222.62 289.217 1224.62 293.196C1233.34 310.551 1257.24 358.464 1286.96 404.008C1308.74 437.367 1329.34 462.95 1348.21 480.046C1359.68 490.437 1370.51 497.682 1380.64 501.758C1391.28 506.04 1401.14 506.808 1410.15 504.04C1426.4 499.044 1440.76 500.407 1453.89 505.673C1475.87 514.507 1494.38 534.327 1512.51 553.736C1529.18 571.589 1545.23 588.771 1562.93 595.896C1571.41 599.303 1580.26 600.405 1589.76 598.178C1596.39 596.621 1602.84 594.48 1609.09 591.777L1581.86 603.585" stroke="#0030A5" stroke-width="1.07814" stroke-miterlimit="10"/>
<path d="M1640.45 128.114C1616.31 138.581 1598.36 156.509 1586.91 181.681C1574.8 208.314 1569.81 243.37 1572.07 285.887C1573.91 320.326 1580.5 359.805 1591.66 403.24C1598.44 429.624 1600.87 456.603 1598.9 483.441C1597 509.241 1591.14 533.624 1581.48 555.899C1571.8 578.249 1558.9 597.107 1543.12 611.954C1532.08 622.356 1520.01 630.401 1507.09 636.013L1534.73 624.032C1547.65 618.431 1559.72 610.386 1570.76 599.973C1586.53 585.127 1599.44 566.269 1609.12 543.918C1618.77 521.643 1624.63 497.26 1626.54 471.46C1628.51 444.622 1626.08 417.633 1619.3 391.26C1608.14 347.824 1601.55 308.345 1599.71 273.906C1597.44 231.4 1602.44 196.344 1614.55 169.701C1626 144.528 1643.95 126.6 1668.08 116.133L1640.45 128.114Z" fill="#0030A5"/>
<path d="M1677.67 111.97C1653.54 122.437 1635.59 140.365 1624.14 165.537C1612.02 192.17 1607.03 227.226 1609.3 269.743C1611.14 304.182 1617.73 343.66 1628.89 387.096C1635.67 413.48 1638.1 440.459 1636.13 467.297C1634.22 493.097 1628.36 517.48 1618.71 539.755C1609.02 562.105 1596.13 580.963 1580.35 595.81C1569.3 606.212 1557.24 614.257 1544.32 619.869L1571.75 607.974C1584.68 602.373 1596.74 594.328 1607.79 583.915C1623.55 569.069 1636.46 550.211 1646.15 527.861C1655.8 505.586 1661.66 481.202 1663.56 455.402C1665.54 428.564 1663.11 401.575 1656.33 375.202C1645.16 331.766 1638.58 292.288 1636.73 257.848C1634.47 215.342 1639.46 180.286 1651.58 153.643C1663.03 128.47 1680.97 110.542 1705.11 100.075L1677.67 111.97Z" fill="#002075"/>
<path d="M1715.21 95.6956C1691.07 106.163 1673.13 124.091 1661.68 149.263C1649.56 175.896 1644.57 210.952 1646.83 253.469C1648.67 287.908 1655.26 327.387 1666.42 370.822C1673.21 397.206 1675.64 424.185 1673.66 451.023C1671.76 476.823 1665.9 501.206 1656.25 523.481C1646.56 545.831 1633.66 564.689 1617.89 579.536C1606.84 589.938 1594.78 597.983 1581.85 603.595L1609.08 591.787C1622 586.186 1634.07 578.141 1645.11 567.728C1660.88 552.882 1673.79 534.024 1683.47 511.673C1693.12 489.398 1698.98 465.015 1700.89 439.215C1702.86 412.377 1700.43 385.388 1693.65 359.015C1682.49 315.579 1675.9 276.1 1674.06 241.661C1671.79 199.155 1676.79 164.099 1688.9 137.456C1700.35 112.283 1718.3 94.3548 1742.43 83.8878L1715.21 95.6956Z" fill="#0041B7"/>
<path d="M1507.31 636.747C1520.28 631.124 1532.39 623.047 1543.48 612.602C1559.31 597.69 1572.27 578.757 1581.99 556.32C1591.69 533.958 1597.57 509.467 1599.47 483.559C1601.46 456.613 1599.01 429.515 1592.21 403.034C1581.06 359.663 1574.47 320.25 1572.65 285.875C1570.38 243.52 1575.36 208.616 1587.41 182.113C1598.79 157.092 1616.64 139.261 1640.65 128.848L1668.29 116.867C1644.28 127.28 1626.43 145.111 1615.05 170.132C1603 196.635 1598.02 231.539 1600.29 273.894C1602.12 308.269 1608.7 347.693 1619.84 391.053C1626.65 417.534 1629.09 444.621 1627.11 471.578C1625.2 497.486 1619.32 521.967 1609.63 544.339C1599.91 566.776 1586.95 585.71 1571.12 600.621C1560.03 611.066 1547.92 619.143 1534.95 624.766L1507.31 636.747Z" fill="#002075"/>
<path d="M1544.54 620.604C1557.52 614.982 1569.63 606.904 1580.72 596.459C1596.55 581.548 1609.51 562.614 1619.23 540.177C1628.92 517.816 1634.8 493.324 1636.71 467.416C1638.7 440.47 1636.25 413.373 1629.44 386.892C1618.3 343.52 1611.71 304.107 1609.89 269.732C1607.62 227.378 1612.6 192.473 1624.65 165.97C1636.03 140.949 1653.88 123.118 1677.88 112.705L1705.32 100.811C1681.31 111.224 1663.47 129.055 1652.09 154.076C1640.03 180.579 1635.06 215.483 1637.32 257.838C1639.16 292.213 1645.74 331.637 1656.88 374.997C1663.69 401.478 1666.13 428.565 1664.14 455.522C1662.23 481.43 1656.35 505.911 1646.67 528.283C1636.94 550.72 1623.99 569.653 1608.16 584.565C1597.07 595.01 1584.96 603.087 1571.98 608.71L1544.54 620.604Z" fill="#002075"/>
<path d="M1582.07 604.32C1595.05 598.697 1607.16 590.62 1618.25 580.174C1634.08 565.263 1647.03 546.33 1656.76 523.892C1666.45 501.531 1672.33 477.04 1674.23 451.132C1676.23 424.185 1673.78 397.088 1666.97 370.607C1655.83 327.236 1649.24 287.822 1647.41 253.448C1645.15 211.093 1650.12 176.188 1662.18 149.686C1673.56 124.664 1691.41 106.834 1715.41 96.4207L1742.64 84.6129C1718.63 95.0258 1700.78 112.857 1689.4 137.878C1677.35 164.381 1672.37 199.285 1674.64 241.64C1676.47 276.014 1683.05 315.439 1694.2 358.799C1701 385.28 1703.44 412.367 1701.46 439.324C1699.55 465.232 1693.67 489.712 1683.98 512.085C1674.26 534.522 1661.3 553.455 1645.47 568.366C1634.38 578.812 1622.27 586.889 1609.3 592.512L1582.07 604.32Z" fill="#002075"/>
<path d="M1719.18 124.74C1703.14 118.295 1686.24 116.63 1668.6 119.787C1658.44 121.615 1649.05 124.394 1640.45 128.124L1668.09 116.143C1676.69 112.413 1686.08 109.634 1696.24 107.806C1713.88 104.649 1730.78 106.314 1746.82 112.759L1719.18 124.74Z" stroke="#0030A5" stroke-width="1.07814" stroke-miterlimit="10"/>
<path d="M1756.41 108.586C1740.38 102.142 1723.48 100.476 1705.84 103.634C1695.68 105.461 1686.28 108.24 1677.68 111.971L1705.12 100.076C1713.73 96.3459 1723.12 93.567 1733.28 91.7396C1750.91 88.5821 1767.81 90.2474 1783.85 96.6919L1756.41 108.586Z" stroke="#0030A5" stroke-width="1.07814" stroke-miterlimit="10"/>
<path d="M1793.95 92.3123C1777.91 85.8677 1761.01 84.2026 1743.38 87.36C1733.21 89.1874 1723.82 91.9663 1715.22 95.6968L1742.45 83.889C1751.05 80.1585 1760.44 77.3795 1770.6 75.5521C1788.24 72.3947 1805.14 74.0599 1821.17 80.5045L1793.95 92.3123Z" stroke="#0030A5" stroke-width="1.07814" stroke-miterlimit="10"/>
<path d="M1968.23 745.041C1947.45 728.659 1929.37 705.951 1915.93 679.362C1902.48 652.773 1893.67 622.302 1890.46 591.225C1879 480.305 1862.62 401.327 1850.9 354.603C1826.59 257.719 1795.63 189.629 1758.88 152.248C1746.34 139.5 1733.08 130.319 1719.18 124.729L1746.81 112.748C1760.72 118.339 1773.99 127.519 1786.52 140.267C1823.26 177.648 1854.23 245.727 1878.54 342.623C1890.26 389.346 1906.64 468.313 1918.1 579.244C1921.31 610.31 1930.11 640.792 1943.56 667.381C1957.01 693.96 1975.09 716.667 1995.87 733.06L1968.23 745.041Z" stroke="#0030A5" stroke-width="1.07814" stroke-miterlimit="10"/>
<path d="M2005.46 728.897C1984.69 712.515 1966.6 689.808 1953.16 663.219C1939.72 636.629 1930.91 606.158 1927.7 575.082C1916.24 464.161 1899.86 385.183 1888.14 338.46C1863.82 241.575 1832.87 173.485 1796.12 136.105C1783.58 123.356 1770.32 114.176 1756.41 108.586L1783.85 96.6913C1797.76 102.282 1811.02 111.462 1823.55 124.21C1860.3 161.591 1891.26 229.67 1915.57 326.566C1927.3 373.289 1943.68 452.256 1955.14 563.187C1958.35 594.253 1967.15 624.735 1980.6 651.324C1994.04 677.903 2012.12 700.61 2032.9 717.003L2005.46 728.897Z" stroke="#0030A5" stroke-width="1.07814" stroke-miterlimit="10"/>
<path d="M2043 712.621C2022.22 696.239 2004.14 673.532 1990.7 646.943C1977.26 620.353 1968.45 589.882 1965.24 558.806C1953.78 447.886 1937.4 368.907 1925.67 322.184C1901.36 225.299 1870.41 157.209 1833.65 119.829C1821.11 107.08 1807.86 97.9 1793.95 92.3096L1821.18 80.5018C1835.08 86.0921 1848.35 95.2724 1860.88 108.021C1897.62 145.402 1928.59 213.481 1952.9 310.376C1964.62 357.099 1981 436.067 1992.46 546.998C1995.67 578.064 2004.47 608.546 2017.92 635.135C2031.37 661.713 2049.45 684.421 2070.23 700.813L2043 712.621Z" stroke="#0030A5" stroke-width="1.07814" stroke-miterlimit="10"/>
<path d="M726.683 490.142C734.042 487.719 741.639 485.817 749.453 484.426C760.637 482.437 771.066 483.422 781.051 486.463C801.919 492.817 820.824 508.169 840.453 524.111C861.807 541.443 883.616 559.142 909.508 567.03C924.971 571.742 941.881 572.949 961.034 568.488C971.649 566.017 983.267 566.702 995.805 570.526C1007.73 574.156 1020.5 580.626 1034.01 589.914C1056.23 605.17 1080.5 628.016 1106.15 657.813C1138.92 695.857 1165.67 735.754 1177.39 753.433C1180.59 758.271 1178.2 764.644 1172.45 766.536L1158.32 771.18C1154.09 772.571 1149.4 771.026 1147.04 767.473C1136.78 751.975 1108.62 709.191 1073.6 668.521C1047.95 638.734 1023.68 615.888 1001.46 600.623C987.949 591.343 975.184 584.874 963.256 581.234C950.718 577.41 939.101 576.725 928.485 579.197C909.343 583.658 892.423 582.441 876.96 577.739C851.068 569.85 829.258 552.151 807.904 534.819C788.265 518.878 769.361 503.535 748.502 497.172C738.518 494.13 728.088 493.145 716.905 495.134C709.091 496.525 701.494 498.437 694.134 500.85L726.693 490.152" stroke="#0030A5" stroke-width="1.07814" stroke-miterlimit="10"/>
<path d="M682.828 504.558C690.187 502.135 697.784 500.233 705.598 498.842C716.782 496.853 727.211 497.838 737.196 500.88C758.064 507.233 776.969 522.585 796.598 538.527C817.952 555.859 839.761 573.558 865.653 581.447C881.116 586.158 898.026 587.365 917.179 582.904C927.794 580.433 939.412 581.118 951.95 584.942C963.877 588.572 976.643 595.042 990.152 604.33C1012.37 619.586 1036.64 642.432 1062.3 672.229C1095.06 710.273 1121.81 750.17 1133.53 767.849C1136.74 772.687 1134.34 779.06 1128.59 780.952L1114.7 785.519C1110.47 786.91 1105.78 785.365 1103.43 781.811C1093.16 766.314 1065.01 723.53 1029.99 682.86C1004.33 653.072 980.064 630.227 957.841 614.961C944.332 605.682 931.567 599.213 919.639 595.573C907.101 591.749 895.483 591.064 884.868 593.535C865.726 597.996 848.805 596.78 833.343 592.077C807.451 584.189 785.641 566.49 764.287 549.158C744.648 533.216 725.743 517.874 704.885 511.51C694.9 508.469 684.471 507.484 673.287 509.473C665.473 510.863 657.876 512.775 650.517 515.189L682.838 504.568" stroke="#0030A5" stroke-width="1.07814" stroke-miterlimit="10"/>
<path d="M638.609 519.091C645.968 516.667 653.566 514.765 661.38 513.375C672.563 511.386 682.992 512.371 692.977 515.412C713.846 521.766 732.751 537.118 752.379 553.06C773.733 570.392 795.543 588.091 821.435 595.979C836.897 600.691 853.807 601.898 872.96 597.437C883.575 594.965 895.193 595.651 907.731 599.475C919.659 603.105 932.424 609.574 945.933 618.863C968.156 634.119 992.425 656.964 1018.08 686.762C1050.84 724.805 1077.59 764.703 1089.32 782.382C1092.52 787.22 1090.12 793.592 1084.38 795.485L1070.72 799.975C1066.49 801.365 1061.8 799.82 1059.44 796.267C1049.18 780.77 1021.03 737.985 986.006 697.316C960.352 667.528 936.083 644.682 913.86 629.417C900.351 620.138 887.586 613.668 875.658 610.028C863.12 606.205 851.502 605.519 840.887 607.991C821.745 612.452 804.824 611.235 789.362 606.533C763.47 598.644 741.66 580.945 720.306 563.613C700.667 547.672 681.762 532.329 660.904 525.966C650.919 522.924 640.49 521.939 629.307 523.929C621.493 525.319 613.895 527.231 606.536 529.645L638.609 519.101" stroke="#0030A5" stroke-width="1.07814" stroke-miterlimit="10"/>
<path d="M569.594 943.678C598.029 934.332 619.166 918.323 632.655 895.844C646.929 872.062 652.81 840.759 650.143 802.792C647.973 772.039 640.21 736.786 627.063 697.999C619.073 674.44 616.21 650.349 618.536 626.383C620.778 603.345 627.683 581.571 639.053 561.681C650.464 541.722 665.658 524.883 684.242 511.625C697.256 502.337 711.468 495.153 726.693 490.142L694.134 500.84C678.909 505.842 664.697 513.026 651.684 522.324C633.11 535.581 617.905 552.421 606.494 572.379C595.124 592.27 588.22 614.043 585.977 637.082C583.651 661.047 586.514 685.148 594.504 708.698C607.652 747.485 615.414 782.738 617.585 813.491C620.251 851.447 614.37 882.751 600.096 906.543C586.607 929.021 565.47 945.03 537.035 954.377L569.594 943.678Z" fill="#0030A5"/>
<path d="M525.739 958.094C554.174 948.748 575.311 932.739 588.8 910.26C603.074 886.478 608.955 855.175 606.288 817.208C604.118 786.455 596.355 751.202 583.208 712.415C575.218 688.856 572.355 664.765 574.681 640.799C576.924 617.761 583.828 595.987 595.198 576.097C606.609 556.138 621.803 539.299 640.387 526.042C653.4 516.753 667.613 509.569 682.838 504.558L650.517 515.179C635.292 520.181 621.079 527.364 608.066 536.663C589.492 549.92 574.288 566.759 562.877 586.718C551.507 606.608 544.602 628.382 542.36 651.42C540.034 675.386 542.897 699.486 550.887 723.037C564.034 761.823 571.797 797.076 573.967 827.83C576.634 865.786 570.753 897.09 556.479 920.881C542.99 943.36 521.853 959.369 493.418 968.716L525.739 958.094Z" fill="#002075"/>
<path d="M481.52 972.627C509.955 963.28 531.092 947.271 544.581 924.792C558.855 901.01 564.736 869.707 562.07 831.741C559.899 800.987 552.137 765.734 538.989 726.948C530.999 703.388 528.136 679.297 530.462 655.331C532.705 632.293 539.609 610.519 550.979 590.629C562.39 570.67 577.584 553.831 596.169 540.574C609.182 531.285 623.394 524.101 638.619 519.09L606.546 529.634C591.321 534.635 577.109 541.819 564.096 551.118C545.522 564.375 530.317 581.214 518.906 601.173C507.536 621.063 500.632 642.837 498.389 665.875C496.063 689.841 498.926 713.941 506.916 737.492C520.064 776.278 527.826 811.531 529.997 842.285C532.663 880.241 526.782 911.545 512.508 935.336C499.019 957.815 477.882 973.824 449.447 983.171L481.52 972.627Z" fill="#0041B7"/>
<path d="M726.435 489.485C711.148 494.506 696.884 501.719 683.819 511.046C665.173 524.361 649.906 541.268 638.454 561.304C627.032 581.272 620.107 603.142 617.864 626.277C615.518 650.339 618.402 674.536 626.422 698.183C639.549 736.912 647.312 772.107 649.462 802.802C652.128 840.623 646.268 871.792 632.066 895.458C618.66 917.801 597.636 933.723 569.357 943.022L536.798 953.72C565.077 944.422 586.101 928.5 599.507 906.156C613.709 882.49 619.57 851.322 616.903 813.5C614.743 782.805 606.99 747.6 593.864 708.881C585.843 685.234 582.969 661.047 585.305 636.975C587.559 613.84 594.484 591.98 605.895 572.002C617.347 551.967 632.614 535.06 651.26 521.744C664.325 512.417 678.589 505.204 693.876 500.183L726.435 489.485Z" fill="#002075"/>
<path d="M682.567 503.901C667.28 508.922 653.016 516.135 639.951 525.462C621.305 538.778 606.039 555.685 594.586 575.72C583.165 595.688 576.24 617.558 573.997 640.693C571.65 664.755 574.534 688.952 582.555 712.599C595.682 751.328 603.444 786.523 605.594 817.218C608.261 855.04 602.4 886.208 588.198 909.874C574.792 932.218 553.769 948.14 525.489 957.438L493.168 968.059C521.448 958.761 542.471 942.839 555.877 920.496C570.079 896.83 575.94 865.661 573.273 827.84C571.113 797.144 563.361 761.94 550.234 723.22C542.213 699.574 539.34 675.386 541.675 651.315C543.929 628.18 550.854 606.319 562.265 586.342C573.718 566.306 588.984 549.399 607.63 536.084C620.695 526.756 634.959 519.544 650.246 514.523L682.567 503.901Z" fill="#002075"/>
<path d="M638.358 518.443C623.071 523.464 608.807 530.677 595.742 540.004C577.096 553.319 561.83 570.226 550.377 590.262C538.956 610.23 532.03 632.1 529.787 655.235C527.441 679.297 530.325 703.494 538.346 727.141C551.473 765.87 559.235 801.065 561.385 831.76C564.052 869.581 558.191 900.75 543.989 924.416C530.583 946.759 509.56 962.681 481.28 971.98L449.207 982.524C477.487 973.225 498.51 957.303 511.916 934.96C526.118 911.294 531.979 880.125 529.312 842.304C527.152 811.609 519.4 776.404 506.273 737.685C498.252 714.038 495.378 689.85 497.714 665.779C499.968 642.644 506.893 620.783 518.304 600.806C529.756 580.77 545.023 563.863 563.669 550.548C576.734 541.221 590.998 534.008 606.285 528.987L638.358 518.443Z" fill="#002075"/>
<path d="M476.848 946.691C495.742 952.445 515.65 953.932 536.425 951.113C548.395 949.481 559.465 947 569.594 943.668L537.035 954.367C526.895 957.698 515.836 960.18 503.867 961.811C483.091 964.631 463.184 963.144 444.289 957.389L476.848 946.691Z" stroke="#0030A5" stroke-width="1.07814" stroke-miterlimit="10"/>
<path d="M432.982 961.116C451.877 966.871 471.784 968.358 492.56 965.538C504.529 963.906 515.599 961.425 525.728 958.094L493.407 968.715C483.268 972.046 472.208 974.528 460.239 976.159C439.463 978.979 419.556 977.492 400.661 971.737L432.982 961.116Z" stroke="#0030A5" stroke-width="1.07814" stroke-miterlimit="10"/>
<path d="M388.764 975.647C407.659 981.402 427.566 982.889 448.342 980.069C460.311 978.438 471.381 975.956 481.511 972.625L449.437 983.169C439.298 986.5 428.238 988.982 416.269 990.614C395.493 993.433 375.586 991.946 356.691 986.191L388.764 975.647Z" stroke="#0030A5" stroke-width="1.07814" stroke-miterlimit="10"/>
<path d="M183.458 392.783C207.934 407.412 229.237 427.688 245.072 451.432C260.907 475.175 271.284 502.385 275.067 530.135C288.566 629.183 307.864 699.708 321.673 741.43C350.314 827.945 386.78 888.747 430.078 922.127C444.849 933.511 460.466 941.708 476.849 946.7L444.29 957.399C427.908 952.407 412.279 944.209 397.519 932.825C354.232 899.446 317.756 838.653 289.114 752.129C275.305 710.407 256.007 639.891 242.509 540.834C238.725 513.093 228.358 485.874 212.513 462.13C196.678 438.397 175.375 418.12 150.899 403.482L183.458 392.783Z" stroke="#0030A5" stroke-width="1.07814" stroke-miterlimit="10"/>
<path d="M139.591 407.2C164.066 421.828 185.369 442.105 201.204 465.848C217.039 489.592 227.417 516.801 231.2 544.552C244.699 643.6 263.996 714.125 277.805 755.847C306.447 842.362 342.912 903.164 386.21 936.543C400.981 947.927 416.599 956.125 432.981 961.117L400.66 971.738C384.278 966.746 368.649 958.549 353.889 947.165C310.602 913.785 274.126 852.993 245.484 766.468C231.675 724.746 212.378 654.231 198.879 555.173C195.096 527.432 184.728 500.213 168.883 476.47C153.048 452.736 131.745 432.459 107.27 417.821L139.591 407.2Z" stroke="#0030A5" stroke-width="1.07814" stroke-miterlimit="10"/>
<path d="M95.3728 421.732C119.849 436.36 141.152 456.637 156.986 480.381C172.821 504.124 183.199 531.334 186.982 559.084C200.481 658.132 219.778 728.657 233.588 770.379C262.229 856.894 298.695 917.696 341.993 951.076C356.763 962.46 372.381 970.657 388.764 975.649L356.691 986.193C340.308 981.201 324.68 973.004 309.92 961.62C266.632 928.24 230.156 867.448 201.515 780.923C187.705 739.201 168.408 668.686 154.909 569.628C151.126 541.887 140.759 514.668 124.913 490.925C109.079 467.191 87.7758 446.914 63.2998 432.276L95.3728 421.732Z" stroke="#0030A5" stroke-width="1.07814" stroke-miterlimit="10"/>
<path d="M106.093 376.697L150.962 403.52L183.955 392.677L139.086 365.854L106.093 376.697Z" stroke="#0030A5" stroke-width="1.07814" stroke-miterlimit="10"/>
<path d="M62.4648 391.035L107.334 417.859L139.655 407.238L94.7859 380.414L62.4648 391.035Z" stroke="#0030A5" stroke-width="1.07814" stroke-miterlimit="10"/>
<path d="M18.0596 405.635L62.9287 432.458L95.4358 421.769L50.577 394.946L18.0596 405.635Z" stroke="#0030A5" stroke-width="1.07814" stroke-miterlimit="10"/>
<path d="M68.1692 357.337C84.3452 352.017 101.772 351.93 118.444 357.009C125.38 359.123 132.191 362.136 138.713 366.037L106.154 376.735C99.6323 372.834 92.8208 369.822 85.8853 367.707C69.2131 362.628 51.7864 362.725 35.6104 368.035C46.4633 364.472 57.3162 360.9 68.1692 357.337Z" stroke="#0030A5" stroke-width="1.07814" stroke-miterlimit="10"/>
<path d="M24.3025 371.754C40.4786 366.434 57.9053 366.347 74.5775 371.426C81.513 373.541 88.3245 376.553 94.8466 380.454L62.5255 391.075C56.0034 387.174 49.1919 384.162 42.2564 382.047C25.5842 376.968 8.15749 377.065 -8.01855 382.376L24.3025 371.754Z" stroke="#0030A5" stroke-width="1.07814" stroke-miterlimit="10"/>
<path d="M-19.9153 386.285C-3.73927 380.965 13.6875 380.878 30.3596 385.957C37.2952 388.071 44.1067 391.084 50.6288 394.985L18.5558 405.529C12.0337 401.628 5.2222 398.615 -1.71334 396.501C-18.3855 391.422 -35.8122 391.518 -51.9883 396.829C-41.3007 393.314 -30.6029 389.8 -19.9153 386.285Z" stroke="#0030A5" stroke-width="1.07814" stroke-miterlimit="10"/>
<path d="M13.4486 436.051C12.5184 405.356 27.5987 378.291 53.7905 363.653C58.4314 361.065 63.2378 358.96 68.1681 357.338C64.5608 358.526 59.7545 360.099 56.1575 361.287C54.359 361.876 51.9507 362.668 50.1522 363.266C46.5449 364.454 41.7386 366.028 38.1416 367.216C37.3871 367.467 36.3742 367.795 35.6196 368.046C30.6893 369.668 25.883 371.773 21.242 374.361C-4.94971 388.999 -20.0198 416.064 -19.0998 446.759L13.459 436.061" fill="#0041B7"/>
<path d="M-30.4086 450.466C-31.3389 419.771 -16.2585 392.706 9.93325 378.068C14.5742 375.481 19.3805 373.376 24.3108 371.753L-8.01026 382.375C-12.9406 383.997 -17.7469 386.102 -22.3878 388.689C-48.5795 403.327 -63.6496 430.392 -62.7297 461.088L-30.4086 450.466Z" fill="#0041B7"/>
<path d="M-13.3926 635.933L-19.1084 446.489L13.8845 435.646L19.6004 625.09L-13.3926 635.933Z" fill="#0041B7"/>
<path d="M-22.9441 685.61C-20.3084 684.741 -17.7141 683.698 -15.2024 682.482C-4.77322 677.451 3.92982 669.717 9.94544 660.11C16.3642 649.884 19.5477 637.728 19.155 624.963L-13.4038 635.661C-13.0214 648.436 -16.205 660.592 -22.6134 670.808C-28.6393 680.406 -37.332 688.15 -47.7612 693.18C-50.2729 694.397 -52.8672 695.44 -55.5029 696.309L-22.9441 685.61Z" fill="#0041B7"/>
</g>
</svg>
